<svg xmlns="http://www.w3.org/2000/svg" version="1.0" preserveAspectRatio="xMidYMid meet" viewBox="160.1 679.9 1780.64 140.2">

<g transform="translate(0.000000,1500.000000) scale(0.100000,-0.100000)" fill="#000000" stroke="none">
<path d="M2312 8189 c-111 -22 -237 -105 -299 -197 -52 -78 -147 -347 -147 -417 0 -65 28 -120 83 -162 78 -60 103 -63 527 -63 214 0 385 -4 388 -9 3 -5 -9 -51 -27 -102 l-32 -94 -522 -5 c-506 -5 -523 -6 -542 -25 -11 -11 -47 -85 -80 -165 l-60 -145 637 -3 c426 -1 654 1 689 9 84 17 164 63 230 132 74 77 98 123 157 304 46 142 55 207 36 257 -16 43 -78 103 -133 127 -52 24 -56 24 -456 27 l-403 3 7 37 c6 34 4 38 -50 88 -31 29 -54 58 -50 63 4 8 186 11 579 11 564 0 574 0 600 21 20 16 36 52 71 162 25 78 45 145 45 149 0 11 -1194 8 -1248 -3z"/>
<path d="M3777 8193 c-17 -16 -3 -33 58 -73 49 -32 64 -47 60 -59 -4 -9 -55 -155 -115 -326 -109 -313 -312 -885 -325 -917 -7 -17 8 -18 218 -18 220 0 227 1 251 23 18 16 47 90 113 285 80 237 92 265 119 281 149 90 155 89 124 -25 l-21 -79 80 -240 79 -240 222 -3 221 -2 30 29 c16 16 29 39 29 51 0 12 -63 198 -140 414 -77 215 -140 394 -140 398 0 3 165 115 368 248 202 134 371 247 377 251 5 5 -114 9 -268 9 l-277 0 -276 -184 c-201 -135 -273 -179 -268 -163 4 12 26 78 49 147 33 97 41 130 33 149 -18 49 -24 50 -319 51 -152 0 -279 -3 -282 -7z"/>
<path d="M5483 8183 c-4 -11 0 -21 11 -27 76 -45 107 -68 112 -79 3 -8 -59 -196 -137 -418 -77 -222 -174 -498 -214 -614 -40 -115 -76 -218 -80 -227 -7 -17 7 -18 214 -18 217 0 222 1 244 23 15 15 96 235 255 693 127 369 232 674 232 678 0 3 -142 6 -315 6 -287 0 -316 -2 -322 -17z"/>
<path d="M6335 8190 c-9 -15 1 -27 66 -70 32 -23 59 -44 59 -47 0 -3 -57 -169 -126 -367 -69 -199 -166 -476 -214 -616 -49 -140 -92 -263 -95 -272 -7 -17 7 -18 213 -18 215 0 222 1 245 23 18 16 59 122 158 410 74 213 136 387 139 387 3 0 100 -184 215 -410 l210 -410 208 0 c202 0 208 1 230 23 15 15 96 235 255 693 127 369 232 674 232 677 0 4 -105 7 -234 7 l-233 0 -106 -307 c-99 -286 -108 -318 -123 -445 -10 -76 -20 -138 -23 -138 -3 1 -102 201 -220 445 l-215 445 -317 0 c-201 0 -320 -4 -324 -10z"/>
<path d="M8324 8188 c-7 -11 17 -36 84 -88 l33 -25 -196 -585 c-107 -322 -195 -595 -195 -608 0 -13 13 -37 30 -53 l29 -30 668 3 668 3 60 24 c80 32 170 122 212 211 17 36 74 192 127 348 l95 282 -473 0 c-411 0 -475 -2 -480 -15 -3 -10 35 -59 110 -140 l115 -125 80 0 c43 0 79 -4 79 -9 0 -16 -72 -215 -83 -228 -13 -18 -677 -19 -677 -2 0 6 43 138 96 293 l96 281 -56 50 c-102 91 -143 85 569 85 666 0 671 0 690 47 4 10 29 80 56 156 l48 137 -889 0 c-665 0 -891 -3 -896 -12z"/>
<path d="M10246 8185 c-4 -11 16 -29 65 -62 51 -34 68 -51 63 -62 -3 -9 -80 -236 -170 -504 -165 -491 -177 -540 -154 -601 16 -43 78 -103 133 -127 l52 -24 525 -3 c367 -2 543 0 585 8 173 34 295 159 365 375 13 39 96 281 186 538 90 258 164 470 164 473 0 2 -99 4 -219 4 -200 0 -221 -2 -242 -19 -18 -14 -65 -138 -200 -527 l-176 -509 -378 -3 c-267 -1 -382 1 -389 9 -8 8 9 30 60 77 l71 67 86 250 c47 138 117 341 156 453 l70 202 -323 0 c-280 0 -325 -2 -330 -15z"/>
<path d="M12205 8190 c-9 -15 8 -34 66 -70 27 -18 49 -38 49 -45 0 -7 -79 -244 -176 -527 -124 -363 -176 -526 -176 -559 0 -61 32 -122 84 -156 l42 -28 590 -3 c411 -2 599 1 617 8 15 7 33 27 43 48 20 47 96 263 96 274 0 4 -216 8 -480 8 -264 0 -480 4 -480 8 0 5 7 30 16 56 l16 48 -42 43 c-23 24 -39 48 -36 54 5 8 122 11 385 11 360 0 379 1 403 20 17 13 38 55 66 138 23 65 42 122 42 125 0 4 -153 7 -340 7 l-339 0 14 39 14 39 -60 52 c-33 29 -58 57 -56 64 3 8 155 12 554 16 520 5 552 6 572 24 11 10 40 77 66 155 26 75 49 142 52 149 6 16 -1592 18 -1602 2z"/>
<path d="M14382 8189 c-111 -22 -237 -105 -299 -197 -52 -78 -147 -347 -147 -417 0 -65 28 -120 83 -162 78 -60 103 -63 527 -63 214 0 385 -4 388 -9 3 -5 -9 -51 -27 -102 l-32 -94 -522 -5 c-506 -5 -523 -6 -542 -25 -11 -11 -47 -85 -80 -165 l-60 -145 637 -3 c426 -1 654 1 689 9 84 17 164 63 230 132 74 77 98 123 157 304 46 142 55 207 36 257 -16 43 -78 103 -133 127 -52 24 -56 24 -456 27 l-403 3 7 37 c6 34 4 38 -50 88 -31 29 -54 58 -50 63 4 8 186 11 579 11 564 0 574 0 600 21 20 16 36 52 71 162 25 78 45 145 45 149 0 11 -1194 8 -1248 -3z"/>
<path d="M16222 8189 c-111 -22 -237 -105 -299 -197 -52 -78 -147 -347 -147 -417 0 -65 28 -120 83 -162 78 -60 103 -63 527 -63 214 0 385 -4 388 -9 3 -5 -9 -51 -27 -102 l-32 -94 -522 -5 c-506 -5 -523 -6 -542 -25 -11 -11 -47 -85 -80 -165 l-60 -145 637 -3 c426 -1 654 1 689 9 84 17 164 63 230 132 74 77 98 123 157 304 46 142 55 207 36 257 -16 43 -78 103 -133 127 -52 24 -56 24 -456 27 l-403 3 7 37 c6 34 4 38 -50 88 -31 29 -54 58 -50 63 4 8 186 11 579 11 564 0 574 0 600 21 20 16 36 52 71 162 25 78 45 145 45 149 0 11 -1194 8 -1248 -3z"/>
<path d="M17740 8181 c0 -11 21 -32 55 -55 31 -20 58 -43 61 -50 3 -7 -65 -212 -151 -457 -86 -244 -184 -523 -217 -619 -33 -96 -63 -181 -65 -187 -4 -10 44 -13 221 -13 222 0 227 0 249 23 14 13 49 101 92 230 l70 207 115 -2 115 -3 120 -227 120 -227 208 -1 c208 0 208 0 232 25 47 46 37 78 -80 263 l-105 167 88 12 c109 14 188 44 250 92 117 93 156 161 242 426 44 135 51 168 46 209 -7 60 -43 117 -95 152 -81 53 -87 54 -858 54 -688 0 -713 -1 -713 -19z m1166 -338 c-3 -10 -23 -70 -44 -133 l-39 -115 -326 -3 -325 -2 21 66 22 67 -64 57 c-38 34 -61 62 -57 69 5 8 120 11 412 11 382 0 405 -1 400 -17z"/>
</g>
</svg>