<svg id="eCPBKcEARO11" xmlns="http://www.w3.org/2000/svg" xmlns:xlink="http://www.w3.org/1999/xlink" viewBox="0 0 648 450" shape-rendering="geometricPrecision" text-rendering="geometricPrecision"><path d="M70.5,171.1c-6.09,0-11.59,3.6-14,9.15l-9.88,23.06c-2.14,5,1.55,10.54,7.01,10.54h32.17c1.53,0,2.91-.91,3.5-2.3l3.2-7.44h-33.85l9.05-21.09-4.91-2.31h37.25c1.53,0,2.91-.91,3.5-2.3l3.14-7.31h-36.18Zm82.99,33.54c-2.39,5.59-7.9,9.21-14.01,9.21h-34c-5.46,0-9.14-5.55-7-10.55l9.88-23.01c2.39-5.58,7.9-9.2,14-9.2h34c5.46,0,9.14,5.55,7,10.55l-9.87,23Zm-11.13-2.83l9.05-21.1h-36.55l4.68,2.31-9.05,21.09h28.38c1.52,0,2.89-.9,3.49-2.3v0Zm40.93,75.68h-7.23l14.24-33.15c-.56,0-15.75,0-15.75,0l4.16-9.61h43.73l-2.89,6.81c-.69,1.63-2.66,2.8-4.58,2.8h-12.44L190.3,272.88c-1.19,2.8-3.95,4.61-7.01,4.61ZM326.41,265.6h-3.85l-10.46-.01-5.2,11.9h-12.02l18.41-42.75h11.99l-8.67,20.18l28.47-19.51c.64-.44,1.39-.67,2.17-.67h18.02l-31.9,22.04l14.4,20.72h-13.17l-8.19-11.9v0Zm-23-30.87h-12.32l-18.38,42.76h8.97c1.93,0,3.99-1.27,4.68-2.9l10.72-25.06l6.33-14.8Zm-36.04,42.76h-12.84l-5.29-9.74h-22.72l-2.21,5.14c-1.2,2.79-3.96,4.6-7.01,4.6h-7.32l18.37-42.75h40.85c5.47,0,9.16,5.55,7.01,10.55l-7.92,18.43c-1.05,2.45-3.47,4.03-6.14,4.03l5.22,9.74v0Zm4.02-21.18l-6.8-11.96-33.68.03l4.66,2.24-4.97,11.62h25.53c1.53,0,2.91-.91,3.51-2.31l4.95-11.59l6.8,11.97Zm102.06-3.82h27.62l-2.6,6.03c-.6,1.39-1.98,2.29-3.5,2.29h-25.12l-2.99,6.93h33.74l-3.17,7.44c-.6,1.4-1.97,2.31-3.5,2.31h-37.78c-2.73,0-4.57-2.78-3.5-5.28l14.1-32.88c1.2-2.79,3.95-4.6,7-4.6h41.03l-3.13,7.31c-.6,1.4-1.98,2.3-3.5,2.3h-36.94l4.76,2.26-2.52,5.89ZM173.09,204.11l14.04-33h-7.33c-3.05,0-5.8,1.81-7,4.6l-11.88,27.6c-2.15,5,1.54,10.55,7,10.55h31.18c6.12,0,11.64-3.63,14.03-9.23l14.32-33.52-7.25-.01c-3.06,0-5.82,1.81-7.02,4.61l-11.16,26.08c-.59,1.4-1.98,2.32-3.51,2.32h-25.42Zm125.68,9.75h-7.23l14.25-33.15c-.56,0-15.75,0-15.75,0l4.16-9.61h43.73l-2.89,6.81c-.69,1.63-2.66,2.8-4.58,2.8h-12.44l-12.23,28.54c-1.2,2.79-3.96,4.61-7.02,4.61Zm138.14-.01v0v0v0Zm-5.23-9.74l5.23,9.74h-12.84l-5.3-9.74h-22.72l-2.21,5.14c-1.2,2.79-3.96,4.6-7.01,4.6h-7.33l18.37-42.75h40.85c5.47,0,9.16,5.55,7.01,10.55l-7.92,18.43c-1.03,2.45-3.45,4.03-6.13,4.03Zm2.45-23.4l6.8,11.96-6.8-11.96-4.95,11.59c-.6,1.4-1.98,2.31-3.51,2.31h-25.53l4.96-11.62-4.66-2.24l33.69-.04Zm-57.48,8.15h-27.69l2.53-5.89-4.77-2.26h37.02c1.53,0,2.91-.91,3.51-2.3l3.14-7.31h-41.13c-3.06,0-5.82,1.81-7.02,4.6L328.1,208.58c-1.07,2.5.77,5.27,3.51,5.27h37.87c1.53,0,2.91-.91,3.51-2.31l3.18-7.44h-33.82l3-6.93h25.18c1.52,0,2.9-.9,3.51-2.29l2.61-6.02Zm-145,20.39c-1.2,2.79-3.96,4.6-7.01,4.6h-7.33l18.38-42.75l9.18-.01c1.41,0,2.71.77,3.37,2.02l14.66,27.55l10.78-24.96c1.2-2.78,3.95-4.59,7-4.59l7.44-.01-17.41,40.45c-.6,1.39-1.98,2.3-3.51,2.3h-7.8c-1.41,0-2.71-.77-3.37-2.01l-14.12-26.47-10.26,23.88v0Zm-85.32,58.5l2.94-6.84v0h-22.88-2.8c-5.46,0-9.15-5.54-7.02-10.53l1.14-2.67l1.6-3.74c2.39-5.6,7.91-9.24,14.04-9.24h39.16l-3.13,7.31c-.6,1.4-1.98,2.31-3.51,2.31h-40.47l4.79,2.31-1.88,4.4h25.65c5.47,0,9.16,5.55,7.01,10.55l-2.87,6.68c-2.4,5.58-7.92,9.2-14.02,9.2h-39.17l3.22-7.45c.6-1.39,1.98-2.29,3.5-2.29h34.7Z" transform="matrix(1.618595 0 0 1.503528-74.461385-112.233813)" clip-rule="evenodd" fill="#FFFFFF" fill-rule="evenodd"/></svg>
